<?xml version="1.0" encoding="UTF-8"?>
<!DOCTYPE svg PUBLIC "-//W3C//DTD SVG 1.1//EN" "http://www.w3.org/Graphics/SVG/1.1/DTD/svg11.dtd">
<!-- Creator: CorelDRAW -->
<svg xmlns="http://www.w3.org/2000/svg" xml:space="preserve" width="250mm" height="145mm" version="1.1" style="shape-rendering:geometricPrecision; text-rendering:geometricPrecision; image-rendering:optimizeQuality; fill-rule:evenodd; clip-rule:evenodd"
viewBox="0 0 25000 14500"
 xmlns:xlink="http://www.w3.org/1999/xlink"
 xmlns:xodm="http://www.corel.com/coreldraw/odm/2003">
 <defs>
  <style type="text/css">
   <![CDATA[
    .str0 {stroke:#FEFEFE;stroke-width:20;stroke-miterlimit:22.9256}
    .fil0 {fill:#FEFEFE}
    .fil1 {fill:#128c7e}
    .fil2 {fill:#FEFEFE}
   ]]>
  </style>
 </defs>
 <g id="Camada_x0020_1">
  <metadata id="CorelCorpID_0Corel-Layer"/>
  <rect class="fil0 str0" x="19963.04" y="6494.44" width="2054.83" height="1079.63"/>
  <path class="fil1" d="M18321.73 12247.66c-43.63,-808.23 12.78,-2736.65 19.41,-3757.67 0.57,-89.14 -15.76,-485.18 30.2,-529.38 125.11,-70.44 665.68,-111.2 849.59,-122.48l1.32 4292.99 -900.52 116.54zm-8064.09 -404.32c-88.23,206.44 -264.13,893.87 -315.42,1007.97l-34.16 59.81c-30.07,49.8 -881.82,118.35 -1001.28,132.03l1685.78 -4932.77 1120.69 -127.73 641.99 2314.43c90.31,303.41 625.39,2164.41 632.48,2327.33l-1008.81 101.35 -249.18 -1031.97 -1472.09 149.55zm12945.6 -231.85l-1.13 -4245.87c24.61,-87.25 45,-59.03 308.25,-91.95 126.81,-15.86 244.3,-33.31 375.59,-43.1l-26.79 4292.89 -655.92 88.03zm-15389.38 -1006.63c1135.44,77.48 1064.55,1456.22 492.86,2090.29 -282.62,313.46 -739.98,483.58 -1182.57,533.99 -508.44,57.93 -1070.34,131.32 -1582.1,158.12l181.83 -4785.31c728.87,-57.57 2068.58,-363.15 2614.49,59.99 465.19,360.58 425.89,1249.98 -281.12,1771.55l-243.39 171.37zm14247.16 -1405.92c71.14,-213.06 1098.94,-930.93 831.91,-1156.13 -6.87,-3.63 -18.11,-15.18 -21.82,-8.16l-93.2 -13.29c-120.49,8.88 -234.55,111.37 -317.73,186.73 -52.4,47.48 -96.92,102.51 -159.88,165.78 -62.5,62.78 -95.84,93.55 -161.85,162.21 -285.29,296.77 -246.66,101.78 -1111.75,101.55l-160.13 205.11c102.29,49.36 515.77,260.49 576.82,327.78 -53.52,110.28 -677.31,775.76 -771.62,829.43 -197.95,112.68 -217.83,-89.7 -418.55,83.18 64.9,89.15 97.73,72.45 177.37,151.15 -146.67,90.91 -569.99,479.22 -967.49,735.54 -31.84,-295.35 -36.74,-3032.04 14.86,-3170.45 579.46,-82.74 1152.61,-151.13 1728.09,-225.3 386.86,-49.86 1443.77,-238.83 1767.25,-214.1l-0.15 4269.87 -3516.92 470.23 -1.71 -917.53c156.52,-151.02 490.54,-314.92 683.82,-444.76 665.82,-447.3 723.49,-511.54 1318.09,-988.63 152.59,-122.44 515.17,-510.38 604.59,-550.21zm-5239.11 -618.36c-125.41,-31.14 -199.18,-87.48 -343.55,-127.42 -2119.45,-586.44 -2563.21,1932.04 -1959.65,2728.61 357.68,472.08 876.73,428.21 1456.99,213.32l33.29 -943.78 -827.46 83.22 30.05 -847.29 1767.84 -197.01 -89.65 2402.64c-87.26,200.97 -1528.01,828.41 -2513.94,467.05 -386.23,-141.55 -673.68,-432.26 -839.89,-758.95 -205.65,-404.21 -264.49,-857.29 -239.27,-1365.53 68.42,-1379.29 895.92,-2443.92 2103.59,-2697.85 568.26,-119.48 910.59,-62.53 1453.83,38.91l-32.18 1004.08zm3494.66 -1274.13c0,-590.8 -85.87,-436.69 460.31,-516.12l871.17 -105.25 0 443.83c-138.31,0 -1273.26,149.59 -1331.48,177.54zm-2544.61 29.58c-12.77,-153.47 -84.84,-181.61 -118.36,-325.47 371.66,0 1405.7,-177.54 1804.9,-177.54 0,215.78 9.44,148.89 -334.52,198.07 -327.75,46.86 -934.45,83.45 -1154.77,206.31 -83.88,46.78 -97.3,75.34 -197.25,98.63zm-4414.93 -860.05c-120.52,68.03 -777.68,111.04 -959.31,110.35l1636.26 -4784.62 1072.09 -113.09 1259.97 4492.35 -995.81 104.84 -238.46 -998.32 -1350.72 129.85c-147.88,31 -134.46,183.38 -234.05,505.08 -52.8,170.57 -88.9,429.21 -189.97,553.56zm7461.56 -1780.93l-334.06 1063.3 -973.06 98.85 1634.93 -4791.81 1075.13 -111.47 1254.13 4484.6 -968.75 109.07c-108.81,-191.49 -210.74,-762.03 -258.85,-999.24l-1429.47 146.7zm-18700.76 -815l-46.19 1029.02 1316.05 -129.61 -30.86 842.73 -1318.73 141.24 -40.68 1057.29 1508.34 -151.25 -30.45 841.32 -2405.05 254.89 165.7 -4645.13 2320.38 -236.94c-27.43,1026.14 37.52,847.14 -335.91,883.26 -365.11,35.3 -735.78,78.83 -1102.6,113.18zm9204.98 343.26c1251.99,155.6 966.2,1522.34 488.27,2034.04 -290.51,311.04 -705.58,455.53 -1144.29,513.76 -450.59,59.82 -1083.9,141.43 -1530.48,153.28l175.56 -4641.52c756.93,-38.22 1987.84,-372.94 2544.77,78.95 450.79,365.75 310.62,1159.78 -102.21,1560.29 -127.52,123.74 -300.65,192.82 -431.62,301.2zm-3110.39 2803.62l-808.54 82.45c-4.9,-776.44 69.5,-1974.95 102.95,-2821.19 11.66,-295.19 62.64,-642.65 56.04,-922.29 -81.96,145.93 -134.67,464.29 -212.49,649.42 -99.19,235.96 -752.54,1672.75 -844.7,1794.72l-624.67 70.81 -676.31 -1630.03c-68.69,-193.99 -66.91,-486.6 -154.31,-648.67 -38.58,1252.31 -55.84,2491.84 -111.34,3742.77 -130.05,57.33 -638.15,88.45 -807.75,101.35l166.44 -4642.51 1105.39 -109.85c132.26,210.1 344.69,799.35 451.74,1054.67 75.17,179.28 155.2,343.65 217,523.19 57.02,165.64 116.71,449.82 189.42,584.84 127.48,-514.17 255.57,-771.76 453.97,-1209.83 104.41,-230.55 439.42,-999.94 552.77,-1142.49l1120.53 -119.5 -176.14 4642.14zm9597.39 -1843.91l1488.05 -146.74 -28.71 837.96 -2397.37 255.98 174.6 -4623.39c180.33,-79.09 675.28,-92.4 897.85,-110.86l-134.42 3787.05zm1323.22 -1072.14c-150.01,0 -161.21,29.59 -325.47,29.59 0,-258.06 30.77,-393.53 29.67,-650.87 -1.16,-270.7 31.3,-435.68 29.89,-680.23l29.21 -1539c0,-352.47 -446.43,-798.89 -798.9,-798.89 -386.27,0 -1203.12,36.65 -1489.54,197.02 -406.72,227.75 -492.89,538.11 -492.89,1016.11 -3.97,-6.24 -8.22,-24.19 -9.55,-20.02l-46.87 -130.67c-51.32,-174.21 -103.69,-322.88 -231.57,-448.97 -410.27,-404.52 -638.74,-337.07 -1192.26,-288.82 -355.27,30.97 -821.5,28.42 -1107,224.49 -171.97,118.11 -309.3,287.67 -383.33,504.33 -78.93,231 -168.5,420.19 -224.99,662.67l-60.66 -87.28c-167.56,-260.89 -363.03,-450.79 -619.28,-623.44 -626.95,-422.34 -1626.37,-275.3 -2346.48,-185.33 -206.98,25.86 -417.64,32.91 -592.7,58.26 -146.23,21.16 -280.98,42.94 -398.59,104.4 -176.9,92.44 -213.52,-6.32 -390.98,-6.32 -333.84,0 -1085.29,74.11 -1408.47,130.13 -248.29,43.04 -349.21,133.17 -492.87,276.43 -90.89,90.64 -110.85,97.34 -170.75,213.9 -42.63,82.95 -94.25,167.58 -117.47,267.2 -78.89,-57.81 -112.62,-152.5 -176.67,-237.57 -237.98,-315.97 -553.44,-349.82 -947.65,-324.65 -237.3,15.14 -987.36,76.16 -1187.49,144.45 -208.82,71.27 -141.7,33.11 -351.15,33.11 -297.19,0 -521.35,35.39 -796.16,61.9l-1554.43 161.71c-321.42,44.82 -458.69,59.5 -659.28,228.38 -401.44,338 -396.26,1209.03 -393.21,1737.17l-29.19 3994.85c0,288.24 501.8,591.77 769.3,591.77 526.29,0 1760.06,-195.75 2368.13,-235.66l455.03 -77.56c162.74,-35.48 346.8,1.99 516.06,-16.53 125.7,-13.77 340.49,-54.89 477.7,-54.89l-87.75 2101.8c-0.26,182.95 -31.37,229.25 -31.61,412.2 -1.01,721.89 -103.42,1974 -88.93,2576.4 10.4,432.43 412.04,916.07 859.23,916.07 482.92,0 1915.31,-142.41 2400.57,-292 119.1,-36.72 223.11,-71.12 321.98,-122.06 323.01,-166.42 164.7,-29.76 325.08,-29.76l1361.07 0c1059.94,0 937.09,-1024.66 1153.96,-1183.55 32.28,387.88 388.16,946.83 798.89,946.83 411.14,0 1381.85,-15 1691.68,-231.57 43.36,-30.3 112.29,-80.08 150.51,-115.78 77.95,-72.84 65.08,-100.58 140.24,-155.65 103.55,24.12 166.9,54.8 261.72,93.35 1014.8,412.62 2393.64,80.94 3247.85,-489.46 101.63,-67.86 145.22,-111.6 248.17,-166.07 240.36,176.1 248.48,443.83 710.13,443.83 252.71,0 438.07,-35.55 675.13,-64.6l2014.93 -263.38c441.75,-50.16 886.77,-125.88 1334.01,-175 369.42,-40.58 1708.99,-165.35 1959.98,-318.35 140.5,-85.64 292.92,-249.42 357.31,-411.98 108.05,-272.75 49.77,-1082.19 49.77,-1459.26 0,-531.14 29.59,-959.33 29.59,-1479.43l0 -1656.95c0,-241.51 -87.75,-399.25 -213.74,-525.99 -395.93,-398.33 -736.57,-271.81 -1249.21,-197.25 -246.77,35.9 -524.86,82.63 -756.19,101.88l0 -88.77c222.66,0 434.95,-45.9 650.94,-59.17 179.66,-11.04 518.46,-41.48 655.89,-83.83 277.96,-85.68 646.01,-450.06 646.01,-803.83 0,-336.18 -95.76,-619.9 -187.8,-936.56 -72.58,-249.68 -127.85,-472.24 -200.39,-716.86l-808.14 -2890.43c-84.85,-296.94 -93.37,-431.59 -265.41,-651.84 -378.84,-485 -1026.37,-331.87 -1550.96,-272.88 -1034.83,116.38 -1037.33,327.64 -1369.85,1322.72l-466.23 1338.67c-66.9,201.99 -432.25,1173.25 -447.57,1357.34z"/>
  <path class="fil2" d="M22061.02 9198.94l51.16 -37.06c85.18,-70.97 80.14,-101.33 192.04,-170.89 -40.24,189.65 -106.88,366.58 -157.75,559.67 -55.01,208.86 -132.53,294.6 -318.71,366.28 -7.58,-428.27 -57.63,-404.42 132.25,-582.67l101.01 -135.33zm0 0c-89.42,39.83 -452,427.77 -604.59,550.21 -594.6,477.09 -652.27,541.33 -1318.09,988.63 -193.28,129.84 -527.3,293.74 -683.82,444.76l1.71 917.53 3516.92 -470.23 0.15 -4269.87c-323.48,-24.73 -1380.39,164.24 -1767.25,214.1 -575.48,74.17 -1148.63,142.56 -1728.09,225.3 -51.6,138.41 -46.7,2875.1 -14.86,3170.45 397.5,-256.32 820.82,-644.63 967.49,-735.54 -79.64,-78.7 -112.47,-62 -177.37,-151.15 200.72,-172.88 220.6,29.5 418.55,-83.18 94.31,-53.67 718.1,-719.15 771.62,-829.43 -61.05,-67.29 -474.53,-278.42 -576.82,-327.78l160.13 -205.11c865.09,0.23 826.46,195.22 1111.75,-101.55 66.01,-68.66 99.35,-99.43 161.85,-162.21 62.96,-63.27 107.48,-118.3 159.88,-165.78 83.18,-75.36 197.24,-177.85 317.73,-186.73l93.2 13.29c3.71,-7.02 14.95,4.53 21.82,8.16 267.03,225.2 -760.77,943.07 -831.91,1156.13z"/>
  <path class="fil2" d="M8388.56 2384.79l-1120.53 119.5c-113.35,142.55 -448.36,911.94 -552.77,1142.49 -198.4,438.07 -326.49,695.66 -453.97,1209.83 -72.71,-135.02 -132.4,-419.2 -189.42,-584.84 -61.8,-179.54 -141.83,-343.91 -217,-523.19 -107.05,-255.32 -319.48,-844.57 -451.74,-1054.67l-1105.39 109.85 -166.44 4642.51c169.6,-12.9 677.7,-44.02 807.75,-101.35 55.5,-1250.93 72.76,-2490.46 111.34,-3742.77 87.4,162.07 85.62,454.68 154.31,648.67l676.31 1630.03 624.67 -70.81c92.16,-121.97 745.51,-1558.76 844.7,-1794.72 77.82,-185.13 130.53,-503.49 212.49,-649.42 6.6,279.64 -44.38,627.1 -56.04,922.29 -33.45,846.24 -107.85,2044.75 -102.95,2821.19l808.54 -82.45 176.14 -4642.14z"/>
  <path class="fil2" d="M6511.64 12496.76l44.19 -1261.23c362.91,-18.49 1261.34,-276.94 1167.45,569.55 -66.91,603.26 -601.44,651.98 -1211.64,691.68zm129.86 -3180.46c155.92,-71.72 1121.9,-255.37 990.99,515.54 -86.27,507.94 -520.42,559.23 -1045.98,603.19l54.99 -1118.73zm1415.75 1117.19c707.01,-521.57 746.31,-1410.97 281.12,-1771.55 -545.91,-423.14 -1885.62,-117.56 -2614.49,-59.99l-181.83 4785.31c511.76,-26.8 1073.66,-100.19 1582.1,-158.12 442.59,-50.41 899.95,-220.53 1182.57,-533.99 571.69,-634.07 642.58,-2012.81 -492.86,-2090.29l243.39 -171.37z"/>
  <path class="fil2" d="M16854.09 7576.5c-543.24,-101.44 -885.57,-158.39 -1453.83,-38.91 -1207.67,253.93 -2035.17,1318.56 -2103.59,2697.85 -25.22,508.24 33.62,961.32 239.27,1365.53 166.21,326.69 453.66,617.4 839.89,758.95 985.93,361.36 2426.68,-266.08 2513.94,-467.05l89.65 -2402.64 -1767.84 197.01 -30.05 847.29 827.46 -83.22 -33.29 943.78c-580.26,214.89 -1099.31,258.76 -1456.99,-213.32 -603.56,-796.57 -159.8,-3315.05 1959.65,-2728.61 144.37,39.94 218.14,96.28 343.55,127.42l32.18 -1004.08z"/>
  <path class="fil2" d="M10116.44 4852.64c553.31,-139.97 1228.78,-136.07 1133.31,551.1 -78.92,568.11 -612.71,622.5 -1177.92,659.42l44.61 -1210.52zm74.27 -1872.86c187.47,-70.51 1090.22,-231.42 970.6,500.46 -78.36,479.5 -509.95,553.64 -1012.9,580.92l42.3 -1081.38zm1132.1 1243.53c130.97,-108.38 304.1,-177.46 431.62,-301.2 412.83,-400.51 553,-1194.54 102.21,-1560.29 -556.93,-451.89 -1787.84,-117.17 -2544.77,-78.95l-175.56 4641.52c446.58,-11.85 1079.89,-93.46 1530.48,-153.28 438.71,-58.23 853.78,-202.72 1144.29,-513.76 477.93,-511.7 763.72,-1878.44 -488.27,-2034.04z"/>
  <path class="fil2" d="M10493.66 10989.53c60.97,-320.84 214.68,-730.26 315.07,-1059.7 37.21,-122.11 287.61,-1006.17 299.63,-1023.45 47.66,672.15 318.12,1326.33 431.97,1979.43l-1046.67 103.72zm1236.07 704.26l249.18 1031.97 1008.81 -101.35c-7.09,-162.92 -542.17,-2023.92 -632.48,-2327.33l-641.99 -2314.43 -1120.69 127.73 -1685.78 4932.77c119.46,-13.68 971.21,-82.23 1001.28,-132.03l34.16 -59.81c51.29,-114.1 227.19,-801.53 315.42,-1007.97l1472.09 -149.55z"/>
  <path class="fil2" d="M21644.32 1851.44c28.19,618.41 312.32,1306.58 415.62,1914.69l-1012.65 99.51 597.03 -2014.2zm603.74 2696.91c48.11,237.21 150.04,807.75 258.85,999.24l968.75 -109.07 -1254.13 -4484.6 -1075.13 111.47 -1634.93 4791.81 973.06 -98.85 334.06 -1063.3 1429.47 -146.7z"/>
  <path class="fil2" d="M13934.53 4604.25l582.69 -2014.12c5.76,12.16 168.05,829.97 196.18,939.29 79.25,307.92 183.23,666.91 231.69,973.62l-1010.56 101.21zm-577.5 1871.73c101.07,-124.35 137.17,-382.99 189.97,-553.56 99.59,-321.7 86.17,-474.08 234.05,-505.08l1350.72 -129.85 238.46 998.32 995.81 -104.84 -1259.97 -4492.35 -1072.09 113.09 -1636.26 4784.62c181.63,0.69 838.79,-42.32 959.31,-110.35z"/>
  <path class="fil2" d="M2117.83 3880.05c366.82,-34.35 737.49,-77.88 1102.6,-113.18 373.43,-36.12 308.48,142.88 335.91,-883.26l-2320.38 236.94 -165.7 4645.13 2405.05 -254.89 30.45 -841.32 -1508.34 151.25 40.68 -1057.29 1318.73 -141.24 30.86 -842.73 -1316.05 129.61 46.19 -1029.02z"/>
  <path class="fil2" d="M17944.23 1395.97c-222.57,18.46 -717.52,31.77 -897.85,110.86l-174.6 4623.39 2397.37 -255.98 28.71 -837.96 -1488.05 146.74 134.42 -3787.05z"/>
  <path class="fil2" d="M19222.25 12131.12l-1.32 -4292.99c-183.91,11.28 -724.48,52.04 -849.59,122.48 -45.96,44.2 -29.63,440.24 -30.2,529.38 -6.63,1021.02 -63.04,2949.44 -19.41,3757.67l900.52 -116.54z"/>
  <path class="fil2" d="M23859.16 11523.46l26.79 -4292.89c-131.29,9.79 -248.78,27.24 -375.59,43.1 -263.25,32.92 -283.64,4.7 -308.25,91.95l1.13 4245.87 655.92 -88.03z"/>
  <path class="fil1" d="M6511.64 12496.76c610.2,-39.7 1144.73,-88.42 1211.64,-691.68 93.89,-846.49 -804.54,-588.04 -1167.45,-569.55l-44.19 1261.23z"/>
  <path class="fil1" d="M10116.44 4852.64l-44.61 1210.52c565.21,-36.92 1099,-91.31 1177.92,-659.42 95.47,-687.17 -580,-691.07 -1133.31,-551.1z"/>
  <path class="fil1" d="M6641.5 9316.3l-54.99 1118.73c525.56,-43.96 959.71,-95.25 1045.98,-603.19 130.91,-770.91 -835.07,-587.26 -990.99,-515.54z"/>
  <path class="fil1" d="M10493.66 10989.53l1046.67 -103.72c-113.85,-653.1 -384.31,-1307.28 -431.97,-1979.43 -12.02,17.28 -262.42,901.34 -299.63,1023.45 -100.39,329.44 -254.1,738.86 -315.07,1059.7z"/>
  <path class="fil1" d="M14945.09 4503.04c-48.46,-306.71 -152.44,-665.7 -231.69,-973.62 -28.13,-109.32 -190.42,-927.13 -196.18,-939.29l-582.69 2014.12 1010.56 -101.21z"/>
  <path class="fil1" d="M10190.71 2979.78l-42.3 1081.38c502.95,-27.28 934.54,-101.42 1012.9,-580.92 119.62,-731.88 -783.13,-570.97 -970.6,-500.46z"/>
  <path class="fil1" d="M21047.29 3865.64l1012.65 -99.51c-103.3,-608.11 -387.43,-1296.28 -415.62,-1914.69l-597.03 2014.2z"/>
  <path class="fil1" d="M22061.02 9198.94l-101.01 135.33c-189.88,178.25 -139.83,154.4 -132.25,582.67 186.18,-71.68 263.7,-157.42 318.71,-366.28 50.87,-193.09 117.51,-370.02 157.75,-559.67 -111.9,69.56 -106.86,99.92 -192.04,170.89l-51.16 37.06z"/>
 </g>
</svg>
